<?xml version="1.0" standalone="no"?>
<!DOCTYPE svg PUBLIC "-//W3C//DTD SVG 20010904//EN"
 "http://www.w3.org/TR/2001/REC-SVG-20010904/DTD/svg10.dtd">
<svg version="1.0" xmlns="http://www.w3.org/2000/svg"
 width="150.000000pt" height="150.000000pt" viewBox="0 0 150.000000 150.000000"
 preserveAspectRatio="xMidYMid meet">
<metadata>
Created by potrace 1.11, written by Peter Selinger 2001-2013
</metadata>
<g transform="translate(0.000000,150.000000) scale(0.100000,-0.100000)"
fill="#000000" stroke="none">
<path d="M497 1477 c-45 -25 -69 -68 -69 -123 0 -103 90 -169 191 -142 90 25
129 121 85 214 -32 67 -135 92 -207 51z"/>
<path d="M891 1483 c-71 -37 -100 -124 -66 -197 54 -113 227 -105 274 12 25
61 0 142 -53 178 -38 24 -115 28 -155 7z"/>
<path d="M270 746 c0 -350 4 -394 51 -492 72 -153 233 -245 429 -245 239 -1
418 135 463 353 10 46 14 160 16 386 l1 322 -125 0 -125 0 0 -316 c0 -199 -4
-331 -11 -360 -21 -83 -97 -135 -208 -140 -119 -5 -207 48 -233 141 -6 25 -11
160 -12 355 l-1 315 -122 3 -123 3 0 -325z"/>
</g>
</svg>
