<svg width="66px" height="50px" viewBox="0 0 66 50" version="1.1" xmlns="http://www.w3.org/2000/svg" xmlns:xlink="http://www.w3.org/1999/xlink">
    <g id="Page-1" stroke="none" stroke-width="1" fill-rule="evenodd">
        <g id="noun_Email_708615" fill-rule="nonzero">
            <path d="M0,42.708252 L0,7.294352 C0.0515581092,7.15567807 0.0946084079,7.01392755 0.12890625,6.869906 C0.80953125,2.94833737 4.18945312,0.0149727886 8.1365625,0.0110668437 C24.7121875,-0.00368894791 41.2873828,-0.00368894791 57.8621484,0.0110668437 C61.6197656,0.0110668437 64.8746484,2.67752519 65.7589453,6.36603911 C65.8337109,6.67721272 65.9239453,6.98578236 66,7.29565399 L66,42.708252 C65.9532267,42.8019634 65.9156642,42.9000815 65.8878516,43.0011978 C65.2755469,46.459261 62.8946484,49.1205114 59.5134375,49.7610864 C57.9304687,50.0631461 56.2675781,49.9876312 54.6420703,49.9889332 C39.2059766,50.0036889 23.7690234,50.0036889 8.33121094,49.9889332 C4.53621094,49.9889332 1.34835937,47.5646434 0.317109375,43.9464365 C0.199804687,43.5454261 0.105703125,43.1261881 0,42.708252 Z M22.4567578,24.3932766 C21.4255078,25.421842 20.4509766,26.3931203 19.4919141,27.3761164 L8.98863281,37.9547171 C8.35441406,38.5913861 8.06179687,39.3126839 8.32863281,40.1889175 C8.80558594,41.7799391 10.6489453,42.1627217 11.8877344,40.9219332 C16.2516406,36.5307832 20.6103906,32.1283493 24.9639844,27.7146317 C25.1247089,27.5232936 25.2703866,27.3195646 25.3996875,27.1053043 C25.760625,27.4386116 25.9991016,27.6469286 26.235,27.8617556 L31.4840625,32.6790876 C32.4817969,33.5904747 33.5233594,33.5800588 34.52625,32.6660678 C36.3421094,31.0064752 38.1571094,29.3442787 39.97125,27.6794782 C40.13625,27.5232404 40.3192969,27.3696065 40.5242578,27.1795172 C42.1652344,28.8408458 43.7701172,30.4696248 45.375,32.0944978 L54.12,40.9271411 C54.7129688,41.5273546 55.3923047,41.8098846 56.2198828,41.5859438 C57.8221875,41.147176 58.2823828,39.2632086 57.0680859,38.027628 C54.1462109,35.055638 51.2153125,32.0936298 48.2753906,29.1416035 C46.7130469,27.5649038 45.1403906,25.99211 43.5509766,24.3854647 C43.7585156,24.1875635 43.9273828,24.0235138 44.1001172,23.864672 L50.4861328,18.0057548 L57.0191016,12.0062235 C57.6481641,11.4294456 57.8982422,10.7198656 57.6907031,9.89440929 C57.5284828,9.1499077 56.956547,8.56615918 56.2211719,8.39452647 C55.3961719,8.17318959 54.7284375,8.47785329 54.1122656,9.04551728 C47.2561719,15.3531842 40.390625,21.6565112 33.515625,27.9554983 C33.350625,28.1104341 33.1727344,28.25886 32.9896875,28.4203057 L23.1644531,19.402781 C19.3832031,15.9412459 15.5998047,12.4745029 11.8142578,9.00255188 C11.2174219,8.45311564 10.5509766,8.18881337 9.75175781,8.41535818 C9.02216385,8.59279916 8.45669859,9.17505095 8.29511719,9.915241 C8.09660156,10.7485092 8.35957031,11.4489753 8.98863281,12.0231492 C11.6939453,14.5003863 14.3966797,16.9806612 17.0968359,19.4639742 L22.4567578,24.3932766 Z" id="Shape"></path>
        </g>
    </g>
</svg>