
<svg width="39px" height="35px" viewBox="0 0 39 35" version="1.1" xmlns="http://www.w3.org/2000/svg" xmlns:xlink="http://www.w3.org/1999/xlink">
    <g id="Page-1" stroke="none" stroke-width="1">
        <g id="noun_Home_3354804" transform="translate(-194.000000, 0.000000)">
            <path d="M226.266519,15.7520502 L226.266519,31.7723655 C226.266519,33.1072396 225.199838,34.2001564 223.897898,34.2001564 L216.202998,34.2001564 L216.202998,22.7405087 C216.202998,22.3351161 215.881301,22.0045932 215.485639,22.0045932 L210.948901,22.0045932 C210.55324,22.0045932 210.231542,22.3351161 210.231542,22.7405087 L210.231542,34.2001564 L202.535751,34.2001564 C201.233812,34.2001564 200.16713,33.1081527 200.16713,31.7723655 L200.16713,15.7520502 L197.591767,17.8630139 C196.697073,18.5971034 195.388005,18.4473637 194.671537,17.5297519 C193.95596,16.6130531 194.102106,15.2717877 194.99769,14.5376983 L211.919341,0.665781578 C212.695514,0.0303011579 213.780018,0.0576925553 214.522329,0.672172904 L231.437741,14.5376983 C232.332435,15.2717877 232.479471,16.6130531 231.763003,17.5297519 C231.046536,18.4473637 229.738358,18.5971034 228.842773,17.8630139 L226.266519,15.7520502 Z" id="Path"></path>
        </g>
    </g>
</svg>