<?xml version="1.0" encoding="UTF-8"?>
<svg viewBox="0 0 948 383" version="1.1" xmlns="http://www.w3.org/2000/svg" xmlns:xlink="http://www.w3.org/1999/xlink">
    <!-- Generator: Sketch 59.1 (86144) - https://sketch.com -->
    <title>Group 12</title>
    <desc>Created with Sketch.</desc>
    <g id="Page-1" stroke="none" stroke-width="1" fill="none" fill-rule="evenodd">
        <g id="Gueiv_01" transform="translate(-486.000000, -349.000000)">
            <g id="Group-12" transform="translate(486.000000, 349.000000)">
                <path d="M46.5669,168.2749 C46.5669,200.7059 68.4399,219.9389 95.2139,219.9389 C121.6109,219.9389 143.4829,200.3289 143.4829,168.2749 C143.4829,136.2209 121.6109,115.8579 95.2139,115.8579 C68.4399,115.8579 46.5669,135.8439 46.5669,168.2749 L46.5669,168.2749 Z M156.3049,61.1779 L190.2439,86.8199 L169.5039,113.2179 C183.8329,129.4329 189.1129,147.9109 189.1129,168.2749 C189.1129,191.2779 180.4399,223.7099 149.8949,237.6619 C180.8169,253.1239 188.3589,275.3729 188.3589,299.1299 C188.3589,350.4169 149.1399,382.0929 95.2139,382.0929 C41.2879,382.0929 0.9379,349.2849 0.9379,299.1299 L46.5669,299.1299 C46.5669,323.2649 68.8169,339.1039 95.2139,339.1039 C121.6109,339.1039 142.3519,324.7739 142.3519,299.1299 C142.3519,273.4869 118.2179,261.7969 95.2139,261.7969 C37.1389,261.7969 0.9379,226.3499 0.9379,168.2749 C0.9379,110.2009 43.1729,73.9989 95.2139,73.9989 C109.9209,73.9989 125.0049,75.8839 137.8269,84.5579 L156.3049,61.1779 Z" id="Fill-2" fill="#FFFFFF"></path>
                <path d="M587.3164,151.3057 C584.2994,127.1707 565.4444,115.1027 539.0464,115.1027 C514.1584,115.1027 493.7954,127.1707 487.0064,151.3057 L587.3164,151.3057 Z M486.2534,189.3927 C489.2694,212.3967 509.2554,228.9897 541.6874,228.9897 C558.6574,228.9897 580.9064,222.5777 591.4644,211.6417 L620.8794,240.6787 C601.2694,261.0427 569.2154,270.8477 540.9324,270.8477 C476.8254,270.8477 438.7364,231.2507 438.7364,171.6687 C438.7364,115.1027 477.2024,74.3757 537.5394,74.3757 C599.7614,74.3757 638.6034,112.8407 631.4384,189.3927 L486.2534,189.3927 Z" id="Fill-4" fill="#FFFFFF"></path>
                <path d="M666.878,265.945 L712.885,265.945 L712.885,79.278 L666.878,79.278 L666.878,265.945 Z M717.032,27.615 C717.032,63.44 662.729,63.44 662.729,27.615 C662.729,-8.21 717.032,-8.21 717.032,27.615 L717.032,27.615 Z" id="Fill-6" fill="#FFFFFF"></path>
                <polygon id="Fill-8" fill="#FFFFFF" points="947.0625 79.6558 867.8705 266.6988 818.0925 266.6988 738.5235 79.6558 788.6775 79.6558 814.3225 141.1228 842.9815 219.5618 871.2645 141.8778 896.9075 79.6558"></polygon>
                <path d="M362.3413,78.979 L362.3413,186.016 C362.3413,193.624 361.1783,199.896 359.2663,204.963 C357.8263,208.771 355.9773,211.921 353.7543,214.606 C352.0823,216.62 350.1933,218.378 348.0313,219.929 C344.7933,222.248 340.9213,224.111 336.2773,225.423 C331.6673,226.724 326.2983,227.458 320.2253,227.466 C313.0113,227.459 306.7993,226.425 301.6553,224.639 C297.7743,223.29 294.4913,221.53 291.6913,219.404 C289.5903,217.806 287.7533,215.998 286.1313,213.925 C283.7053,210.816 281.7393,207.096 280.3273,202.498 C278.9203,197.907 278.0913,192.433 278.0913,186.016 L278.0913,78.979 L233.385299,78.979 L233.385299,186.344 C233.3833,199.105 235.5113,210.971 239.7003,221.59 C242.8373,229.55 247.1373,236.791 252.4463,243.094 C260.4043,252.562 270.6143,259.855 282.2043,264.655 C293.6333,269.399 306.3813,271.763 319.9163,271.831 L319.9163,271.845 C320.0233,271.845 320.1293,271.839 320.2363,271.839 C320.3303,271.839 320.4233,271.845 320.5173,271.845 L320.5173,271.833 C332.5283,271.771 343.9133,269.906 354.3143,266.17 C362.2413,263.323 369.5913,259.388 376.1183,254.402 C385.9163,246.937 393.8003,237.086 399.0683,225.509 C404.3533,213.929 407.0513,200.698 407.047304,186.344 L407.047304,78.979 L362.3413,78.979 Z" id="Fill-9" fill="#EFB81B"></path>
                <path d="M385.688,27.6152 C385.688,63.4402 331.385,63.4402 331.385,27.6152 C331.385,-8.2098 385.688,-8.2098 385.688,27.6152" id="Fill-10" fill="#EFB81B"></path>
                <path d="M315.8511,27.6152 C315.8511,63.4402 261.5481,63.4402 261.5481,27.6152 C261.5481,-8.2098 315.8511,-8.2098 315.8511,27.6152" id="Fill-11" fill="#EFB81B"></path>
            </g>
        </g>
    </g>
</svg>